<svg xmlns="http://www.w3.org/2000/svg" xmlns:xlink="http://www.w3.org/1999/xlink" width="610" zoomAndPan="magnify" viewBox="0 0 457.5 332.999992" height="444" preserveAspectRatio="xMidYMid meet" version="1.2"><defs><clipPath id="116624ef39"><path d="M 149 29.277344 L 289 29.277344 L 289 168.875 L 149 168.875 Z M 149 29.277344 "/></clipPath></defs><g id="ff02edce79"><g clip-rule="nonzero" clip-path="url(#116624ef39)"><path style=" stroke:none;fill-rule:nonzero;fill:#936eff;fill-opacity:1;" d="M 230.394531 158.171875 L 226.609375 164.5625 C 223.234375 170.257812 214.796875 170.257812 211.417969 164.5625 L 207.628906 158.171875 C 204.695312 153.214844 203.222656 150.738281 200.863281 149.367188 C 198.503906 147.996094 195.535156 147.945312 189.59375 147.84375 C 180.816406 147.691406 175.316406 147.152344 170.699219 145.246094 C 162.140625 141.703125 155.339844 134.910156 151.792969 126.363281 C 149.132812 119.953125 149.132812 111.824219 149.132812 95.566406 L 149.132812 88.589844 C 149.132812 65.746094 149.132812 54.324219 154.28125 45.933594 C 157.160156 41.242188 161.117188 37.292969 165.816406 34.417969 C 174.21875 29.277344 185.65625 29.277344 208.53125 29.277344 L 229.496094 29.277344 C 252.371094 29.277344 263.808594 29.277344 272.210938 34.417969 C 276.914062 37.292969 280.863281 41.242188 283.746094 45.933594 C 288.894531 54.324219 288.894531 65.746094 288.894531 88.589844 L 288.894531 95.566406 C 288.894531 111.824219 288.894531 119.953125 286.234375 126.363281 C 282.6875 134.910156 275.886719 141.703125 267.324219 145.246094 C 262.710938 147.152344 257.210938 147.691406 248.4375 147.84375 C 242.496094 147.945312 239.523438 147.996094 237.164062 149.367188 C 234.804688 150.738281 233.335938 153.214844 230.394531 158.171875 Z M 230.394531 158.171875 "/></g><path style=" stroke:none;fill-rule:nonzero;fill:#ffffff;fill-opacity:1;" d="M 253.957031 92.078125 C 253.957031 95.933594 250.828125 99.054688 246.96875 99.054688 C 243.105469 99.054688 239.980469 95.933594 239.980469 92.078125 C 239.980469 88.226562 243.105469 85.101562 246.96875 85.101562 C 250.828125 85.101562 253.957031 88.226562 253.957031 92.078125 Z M 253.957031 92.078125 "/><path style=" stroke:none;fill-rule:nonzero;fill:#ffffff;fill-opacity:1;" d="M 226 92.078125 C 226 95.933594 222.871094 99.054688 219.011719 99.054688 C 215.152344 99.054688 212.023438 95.933594 212.023438 92.078125 C 212.023438 88.226562 215.152344 85.101562 219.011719 85.101562 C 222.871094 85.101562 226 88.226562 226 92.078125 Z M 226 92.078125 "/><path style=" stroke:none;fill-rule:nonzero;fill:#ffffff;fill-opacity:1;" d="M 198.050781 92.078125 C 198.050781 95.933594 194.921875 99.054688 191.0625 99.054688 C 187.203125 99.054688 184.074219 95.933594 184.074219 92.078125 C 184.074219 88.226562 187.203125 85.101562 191.0625 85.101562 C 194.921875 85.101562 198.050781 88.226562 198.050781 92.078125 Z M 198.050781 92.078125 "/><g style="fill:#ffffff;fill-opacity:1;"><g transform="translate(138.65705, 251.447551)"><path style="stroke:none" d="M 24.25 -20.640625 C 24.25 -19.109375 23.78125 -17.796875 22.84375 -16.703125 C 21.914062 -15.617188 20.660156 -14.882812 19.078125 -14.5 L 19.078125 -14.421875 C 20.992188 -14.117188 22.535156 -13.316406 23.703125 -12.015625 C 24.878906 -10.722656 25.46875 -9.226562 25.46875 -7.53125 C 25.46875 -6.082031 25.078125 -4.785156 24.296875 -3.640625 C 23.523438 -2.492188 22.398438 -1.597656 20.921875 -0.953125 C 19.453125 -0.316406 17.71875 0 15.71875 0 L 1.671875 0 L 1.671875 -0.734375 C 2.828125 -0.734375 3.691406 -0.863281 4.265625 -1.125 C 4.835938 -1.382812 5.234375 -1.800781 5.453125 -2.375 C 5.671875 -2.945312 5.78125 -3.78125 5.78125 -4.875 L 5.78125 -23.0625 C 5.78125 -24.226562 5.675781 -25.113281 5.46875 -25.71875 C 5.257812 -26.320312 4.867188 -26.742188 4.296875 -26.984375 C 3.722656 -27.234375 2.847656 -27.367188 1.671875 -27.390625 L 1.671875 -28.140625 L 13.796875 -28.140625 C 15.441406 -28.140625 17.046875 -27.910156 18.609375 -27.453125 C 20.179688 -27.003906 21.515625 -26.21875 22.609375 -25.09375 C 23.703125 -23.976562 24.25 -22.492188 24.25 -20.640625 Z M 10.203125 -26.5 L 10.203125 -15.5625 C 11.671875 -15.257812 12.800781 -15.109375 13.59375 -15.109375 C 14.71875 -15.109375 15.722656 -15.359375 16.609375 -15.859375 C 17.492188 -16.367188 18.1875 -17.050781 18.6875 -17.90625 C 19.195312 -18.769531 19.453125 -19.722656 19.453125 -20.765625 C 19.453125 -22.484375 18.863281 -23.914062 17.6875 -25.0625 C 16.519531 -26.207031 14.953125 -26.78125 12.984375 -26.78125 C 12.054688 -26.78125 11.128906 -26.6875 10.203125 -26.5 Z M 10.203125 -13.640625 L 10.203125 -1.96875 C 11.367188 -1.613281 12.5 -1.4375 13.59375 -1.4375 C 15.644531 -1.4375 17.285156 -1.988281 18.515625 -3.09375 C 19.742188 -4.195312 20.359375 -5.648438 20.359375 -7.453125 C 20.359375 -9.359375 19.613281 -10.882812 18.125 -12.03125 C 16.632812 -13.1875 14.609375 -13.765625 12.046875 -13.765625 C 11.609375 -13.765625 10.992188 -13.722656 10.203125 -13.640625 Z M 10.203125 -13.640625 "/></g></g><g style="fill:#ffffff;fill-opacity:1;"><g transform="translate(165.969, 251.447551)"><path style="stroke:none" d="M 7.40625 -29.359375 L 7.40625 -4.296875 C 7.40625 -2.929688 7.601562 -1.992188 8 -1.484375 C 8.394531 -0.984375 9.113281 -0.734375 10.15625 -0.734375 L 10.15625 0 L 0.9375 0 L 0.9375 -0.734375 C 1.707031 -0.734375 2.3125 -0.816406 2.75 -0.984375 C 3.1875 -1.148438 3.507812 -1.488281 3.71875 -2 C 3.9375 -2.519531 4.046875 -3.285156 4.046875 -4.296875 L 4.046875 -23.671875 C 4.046875 -25.503906 3.40625 -26.421875 2.125 -26.421875 C 1.769531 -26.421875 1.457031 -26.347656 1.1875 -26.203125 L 0.9375 -26.90625 L 6.671875 -29.359375 Z M 7.40625 -29.359375 "/></g></g><g style="fill:#ffffff;fill-opacity:1;"><g transform="translate(177.065755, 251.447551)"><path style="stroke:none" d="M 5.5625 -29.484375 C 6.164062 -29.484375 6.671875 -29.273438 7.078125 -28.859375 C 7.492188 -28.453125 7.703125 -27.960938 7.703125 -27.390625 C 7.703125 -26.796875 7.492188 -26.289062 7.078125 -25.875 C 6.671875 -25.46875 6.164062 -25.265625 5.5625 -25.265625 C 4.988281 -25.265625 4.5 -25.46875 4.09375 -25.875 C 3.6875 -26.289062 3.484375 -26.796875 3.484375 -27.390625 C 3.484375 -27.960938 3.6875 -28.453125 4.09375 -28.859375 C 4.5 -29.273438 4.988281 -29.484375 5.5625 -29.484375 Z M 7.375 -4.265625 C 7.375 -2.921875 7.59375 -2.003906 8.03125 -1.515625 C 8.46875 -1.023438 9.175781 -0.765625 10.15625 -0.734375 L 10.15625 0 L 0.9375 0 L 0.9375 -0.734375 C 2.0625 -0.734375 2.851562 -0.992188 3.3125 -1.515625 C 3.78125 -2.035156 4.015625 -2.976562 4.015625 -4.34375 L 4.015625 -14.25 C 4.015625 -14.988281 3.847656 -15.585938 3.515625 -16.046875 C 3.191406 -16.515625 2.6875 -16.75 2 -16.75 C 1.707031 -16.75 1.4375 -16.679688 1.1875 -16.546875 L 0.9375 -17.28125 L 6.640625 -19.453125 L 7.375 -19.453125 Z M 7.375 -4.265625 "/></g></g><g style="fill:#ffffff;fill-opacity:1;"><g transform="translate(188.16251, 251.447551)"><path style="stroke:none" d="M 7.328125 -15.4375 C 8.742188 -16.96875 9.898438 -18.019531 10.796875 -18.59375 C 11.703125 -19.164062 12.703125 -19.453125 13.796875 -19.453125 C 15.003906 -19.453125 15.972656 -19.128906 16.703125 -18.484375 C 17.441406 -17.847656 17.972656 -17.066406 18.296875 -16.140625 C 18.628906 -15.210938 18.796875 -14.296875 18.796875 -13.390625 L 18.796875 -4.34375 C 18.796875 -2.945312 19.015625 -2.007812 19.453125 -1.53125 C 19.890625 -1.050781 20.640625 -0.785156 21.703125 -0.734375 L 21.703125 0 L 12.125 0 L 12.125 -0.734375 C 13 -0.734375 13.664062 -0.828125 14.125 -1.015625 C 14.59375 -1.210938 14.925781 -1.5625 15.125 -2.0625 C 15.332031 -2.570312 15.4375 -3.332031 15.4375 -4.34375 L 15.4375 -13.5625 C 15.4375 -14.425781 15.148438 -15.21875 14.578125 -15.9375 C 14.003906 -16.664062 13.210938 -17.03125 12.203125 -17.03125 C 11.359375 -17.03125 10.550781 -16.804688 9.78125 -16.359375 C 9.019531 -15.910156 8.203125 -15.222656 7.328125 -14.296875 L 7.328125 -4.34375 C 7.328125 -2.925781 7.554688 -1.976562 8.015625 -1.5 C 8.484375 -1.019531 9.289062 -0.765625 10.4375 -0.734375 L 10.4375 0 L 1.03125 0 L 1.03125 -0.734375 C 1.875 -0.816406 2.5 -0.96875 2.90625 -1.1875 C 3.3125 -1.40625 3.585938 -1.742188 3.734375 -2.203125 C 3.890625 -2.671875 3.96875 -3.34375 3.96875 -4.21875 L 3.96875 -14.421875 C 3.96875 -15.046875 3.832031 -15.585938 3.5625 -16.046875 C 3.289062 -16.515625 2.851562 -16.75 2.25 -16.75 C 1.976562 -16.75 1.722656 -16.703125 1.484375 -16.609375 C 1.253906 -16.515625 1.101562 -16.453125 1.03125 -16.421875 L 0.734375 -17.203125 L 6.640625 -19.453125 L 7.328125 -19.453125 Z M 7.328125 -15.4375 "/></g></g><g style="fill:#ffffff;fill-opacity:1;"><g transform="translate(210.765499, 251.447551)"><path style="stroke:none" d="M 7.53125 -29.359375 L 7.53125 -10.640625 L 13.390625 -16.21875 C 13.878906 -16.65625 14.125 -17.050781 14.125 -17.40625 C 14.125 -17.65625 13.992188 -17.859375 13.734375 -18.015625 C 13.472656 -18.179688 13.097656 -18.265625 12.609375 -18.265625 L 12.609375 -19 L 21.015625 -19 L 21.015625 -18.265625 L 20.71875 -18.265625 C 19.4375 -18.265625 18.363281 -18.035156 17.5 -17.578125 C 16.644531 -17.128906 15.65625 -16.375 14.53125 -15.3125 L 10.734375 -11.71875 L 15.84375 -5.078125 C 16.800781 -3.847656 17.597656 -2.925781 18.234375 -2.3125 C 18.878906 -1.695312 19.472656 -1.28125 20.015625 -1.0625 C 20.566406 -0.84375 21.1875 -0.734375 21.875 -0.734375 L 21.875 0 L 12.734375 0 L 12.734375 -0.734375 C 13.609375 -0.785156 14.046875 -1.046875 14.046875 -1.515625 C 14.046875 -1.984375 13.773438 -2.53125 13.234375 -3.15625 L 7.625 -10.4375 L 7.53125 -10.4375 L 7.53125 -4.34375 C 7.53125 -3.332031 7.640625 -2.566406 7.859375 -2.046875 C 8.078125 -1.523438 8.40625 -1.175781 8.84375 -1 C 9.28125 -0.820312 9.910156 -0.734375 10.734375 -0.734375 L 10.734375 0 L 1.0625 0 L 1.0625 -0.734375 C 1.851562 -0.734375 2.46875 -0.820312 2.90625 -1 C 3.34375 -1.175781 3.660156 -1.515625 3.859375 -2.015625 C 4.066406 -2.523438 4.171875 -3.300781 4.171875 -4.34375 L 4.171875 -23.921875 C 4.171875 -24.867188 4.019531 -25.546875 3.71875 -25.953125 C 3.425781 -26.367188 2.910156 -26.578125 2.171875 -26.578125 C 2.035156 -26.578125 1.882812 -26.5625 1.71875 -26.53125 C 1.550781 -26.507812 1.414062 -26.472656 1.3125 -26.421875 L 1.0625 -27.109375 L 6.84375 -29.359375 Z M 7.53125 -29.359375 "/></g></g><g style="fill:#ffffff;fill-opacity:1;"><g transform="translate(233.368489, 251.447551)"><path style="stroke:none" d="M 17.078125 -28.75 C 18.441406 -28.75 19.617188 -28.617188 20.609375 -28.359375 C 21.609375 -28.097656 22.570312 -27.765625 23.5 -27.359375 C 24.269531 -27.054688 24.765625 -26.90625 24.984375 -26.90625 C 25.304688 -26.90625 25.617188 -27.078125 25.921875 -27.421875 C 26.222656 -27.765625 26.425781 -28.207031 26.53125 -28.75 L 27.234375 -28.75 L 27.9375 -19.25 L 27.234375 -19.25 C 26.984375 -20.914062 26.375 -22.347656 25.40625 -23.546875 C 24.4375 -24.742188 23.25 -25.648438 21.84375 -26.265625 C 20.4375 -26.878906 18.957031 -27.1875 17.40625 -27.1875 C 14.207031 -27.1875 11.644531 -26.046875 9.71875 -23.765625 C 7.800781 -21.492188 6.84375 -18.050781 6.84375 -13.4375 C 6.84375 -10.707031 7.367188 -8.421875 8.421875 -6.578125 C 9.472656 -4.734375 10.847656 -3.363281 12.546875 -2.46875 C 14.253906 -1.582031 16.078125 -1.140625 18.015625 -1.140625 C 20.015625 -1.140625 21.914062 -1.644531 23.71875 -2.65625 C 25.519531 -3.664062 26.925781 -5.019531 27.9375 -6.71875 L 28.546875 -6.3125 C 25.835938 -1.695312 21.851562 0.609375 16.59375 0.609375 C 13.851562 0.609375 11.347656 -0.0195312 9.078125 -1.28125 C 6.816406 -2.550781 5.023438 -4.28125 3.703125 -6.46875 C 2.378906 -8.65625 1.71875 -11.054688 1.71875 -13.671875 C 1.71875 -16.429688 2.398438 -18.960938 3.765625 -21.265625 C 5.128906 -23.578125 6.984375 -25.398438 9.328125 -26.734375 C 11.679688 -28.078125 14.265625 -28.75 17.078125 -28.75 Z M 17.078125 -28.75 "/></g></g><g style="fill:#ffffff;fill-opacity:1;"><g transform="translate(262.809701, 251.447551)"><path style="stroke:none" d="M 7.375 -15.4375 L 7.453125 -15.4375 C 8.359375 -16.664062 9.382812 -17.640625 10.53125 -18.359375 C 11.675781 -19.085938 12.804688 -19.453125 13.921875 -19.453125 C 15.535156 -19.453125 16.757812 -18.84375 17.59375 -17.625 C 18.425781 -16.414062 18.84375 -14.921875 18.84375 -13.140625 L 18.84375 -4.375 C 18.84375 -3.34375 18.953125 -2.566406 19.171875 -2.046875 C 19.390625 -1.523438 19.707031 -1.175781 20.125 -1 C 20.550781 -0.820312 21.160156 -0.734375 21.953125 -0.734375 L 21.953125 0 L 12.453125 0 L 12.453125 -0.734375 C 13.191406 -0.734375 13.769531 -0.816406 14.1875 -0.984375 C 14.613281 -1.148438 14.9375 -1.488281 15.15625 -2 C 15.375 -2.519531 15.484375 -3.300781 15.484375 -4.34375 L 15.484375 -13.671875 C 15.484375 -14.546875 15.203125 -15.3125 14.640625 -15.96875 C 14.078125 -16.625 13.28125 -16.953125 12.25 -16.953125 C 11.394531 -16.953125 10.59375 -16.753906 9.84375 -16.359375 C 9.09375 -15.960938 8.269531 -15.316406 7.375 -14.421875 L 7.375 -4.34375 C 7.375 -3.28125 7.472656 -2.492188 7.671875 -1.984375 C 7.878906 -1.484375 8.207031 -1.148438 8.65625 -0.984375 C 9.113281 -0.816406 9.773438 -0.734375 10.640625 -0.734375 L 10.640625 0 L 1.03125 0 L 1.03125 -0.734375 C 1.757812 -0.734375 2.335938 -0.820312 2.765625 -1 C 3.191406 -1.175781 3.503906 -1.53125 3.703125 -2.0625 C 3.910156 -2.59375 4.015625 -3.363281 4.015625 -4.375 L 4.015625 -23.625 C 4.015625 -24.769531 3.835938 -25.523438 3.484375 -25.890625 C 3.128906 -26.265625 2.675781 -26.453125 2.125 -26.453125 C 1.75 -26.453125 1.382812 -26.367188 1.03125 -26.203125 L 0.78125 -26.90625 L 6.640625 -29.359375 L 7.375 -29.359375 Z M 7.375 -15.4375 "/></g></g><g style="fill:#ffffff;fill-opacity:1;"><g transform="translate(285.412691, 251.447551)"><path style="stroke:none" d="M 9.78125 -19.453125 C 13.882812 -19.453125 15.9375 -17.8125 15.9375 -14.53125 L 15.9375 -3.6875 C 15.9375 -2.945312 16.046875 -2.460938 16.265625 -2.234375 C 16.484375 -2.003906 16.769531 -1.890625 17.125 -1.890625 C 17.53125 -1.890625 17.910156 -2.003906 18.265625 -2.234375 C 18.617188 -2.460938 19.140625 -2.90625 19.828125 -3.5625 L 19.828125 -2.546875 C 18.785156 -1.367188 17.929688 -0.550781 17.265625 -0.09375 C 16.597656 0.351562 15.90625 0.578125 15.1875 0.578125 C 14.394531 0.578125 13.757812 0.296875 13.28125 -0.265625 C 12.8125 -0.828125 12.578125 -1.65625 12.578125 -2.75 C 11.367188 -1.601562 10.253906 -0.757812 9.234375 -0.21875 C 8.210938 0.3125 7.097656 0.578125 5.890625 0.578125 C 4.691406 0.578125 3.679688 0.128906 2.859375 -0.765625 C 2.046875 -1.671875 1.640625 -2.765625 1.640625 -4.046875 C 1.640625 -6.234375 2.800781 -7.925781 5.125 -9.125 C 7.332031 -10.300781 9.816406 -11.382812 12.578125 -12.375 L 12.578125 -13.515625 C 12.578125 -14.609375 12.5 -15.484375 12.34375 -16.140625 C 12.195312 -16.796875 11.859375 -17.320312 11.328125 -17.71875 C 10.796875 -18.113281 9.984375 -18.3125 8.890625 -18.3125 C 7.828125 -18.3125 7.035156 -18.050781 6.515625 -17.53125 C 5.992188 -17.007812 5.734375 -16.367188 5.734375 -15.609375 L 5.78125 -14.53125 C 5.78125 -14.070312 5.628906 -13.691406 5.328125 -13.390625 C 5.023438 -13.085938 4.640625 -12.9375 4.171875 -12.9375 C 3.660156 -12.9375 3.238281 -13.085938 2.90625 -13.390625 C 2.582031 -13.691406 2.421875 -14.113281 2.421875 -14.65625 C 2.421875 -16.019531 3.0625 -17.160156 4.34375 -18.078125 C 5.625 -18.992188 7.4375 -19.453125 9.78125 -19.453125 Z M 5.125 -5.125 C 5.125 -4.195312 5.414062 -3.40625 6 -2.75 C 6.582031 -2.09375 7.3125 -1.765625 8.1875 -1.765625 C 9.582031 -1.765625 11.046875 -2.445312 12.578125 -3.8125 L 12.578125 -11.265625 C 10.660156 -10.472656 9.179688 -9.78125 8.140625 -9.1875 C 7.109375 -8.601562 6.347656 -7.992188 5.859375 -7.359375 C 5.367188 -6.734375 5.125 -5.988281 5.125 -5.125 Z M 5.125 -5.125 "/></g></g><g style="fill:#ffffff;fill-opacity:1;"><g transform="translate(304.698859, 251.447551)"><path style="stroke:none" d="M 6.796875 -25.015625 L 7.453125 -25.015625 L 7.453125 -19 L 11.75 -19 L 11.75 -17.734375 L 7.453125 -17.734375 L 7.453125 -4.546875 C 7.453125 -3.835938 7.65625 -3.203125 8.0625 -2.640625 C 8.476562 -2.078125 9.050781 -1.796875 9.78125 -1.796875 C 10.28125 -1.796875 10.71875 -1.910156 11.09375 -2.140625 C 11.476562 -2.378906 11.890625 -2.785156 12.328125 -3.359375 L 13.140625 -3.359375 C 12.429688 -2.046875 11.664062 -1.0625 10.84375 -0.40625 C 10.03125 0.25 9.078125 0.578125 7.984375 0.578125 C 6.785156 0.578125 5.835938 0.132812 5.140625 -0.75 C 4.441406 -1.644531 4.09375 -2.851562 4.09375 -4.375 L 4.09375 -17.734375 L 1.1875 -17.734375 L 1.1875 -18.546875 C 2.582031 -19.117188 3.753906 -19.957031 4.703125 -21.0625 C 5.660156 -22.175781 6.359375 -23.492188 6.796875 -25.015625 Z M 6.796875 -25.015625 "/></g></g></g></svg>